<svg xmlns="http://www.w3.org/2000/svg" viewBox="0 0 100 100">
  <path fill="#213147" d="M9,30v40c0,3,1,5,4,6l34,20c2,1,5,1,7,0l34-20c2-1,4-3,4-6V30c0-3-2-5-4-6L54,4c-2-1-5-1-7,0L13,24c-2,1-3,3-4,6z"/>
  <path fill="#12AAFF" d="M57,58l-5,13 8,23 10-6-12-32c0-1-1-1-1,2z"/>
  <path fill="#12AAFF" d="M67,35c0-1-1-1-2,0l-5,13 14,38 10-6L67,36z"/>
  <path fill="#FFFFFF" d="M47,26H38c-1,0-1,0-2,1L16,82l10,6 22-60c0-1 0-1-1-1z"/>
  <path fill="#FFFFFF" d="M63,26H54c-1,0-1,0-2,1L30,89l10,6 25-68c0-1 0-1-1-1z"/>
</svg>
