<svg width="801" height="161" viewBox="0 0 801 161" fill="none" xmlns="http://www.w3.org/2000/svg">
<path d="M123.489 65.3812L101.62 78.0153C100.54 78.655 99.2606 78.655 98.1412 78.0153L74.1924 64.1818V36.9146L123.409 65.3412C123.409 65.3412 123.449 65.3812 123.529 65.4212L123.489 65.3812Z" fill="#30313D"/>
<path d="M125.57 69.0209V94.2491C125.57 95.4885 124.89 96.648 123.811 97.2877L101.741 110.002L101.861 109.362C101.901 109.122 101.901 108.922 101.901 108.682V84.6536C101.901 84.3737 101.901 84.0539 101.821 83.774C101.821 83.5741 101.781 83.4142 101.741 83.1743C101.701 82.9344 101.661 82.6945 101.581 82.4147C102.301 82.2547 102.98 82.0148 103.66 81.615L125.53 68.981L125.57 69.0209Z" fill="#30313D"/>
<path d="M97.7832 84.6121V108.641C97.7832 109.001 97.5433 109.241 97.4234 109.281C97.2635 109.361 97.0636 109.44 96.7437 109.281L74.1543 96.2866V68.9395L96.0241 81.6135C96.5838 81.8934 96.9836 82.3732 97.3035 82.8929C97.5833 83.3727 97.7432 83.9724 97.7432 84.6121H97.7832Z" fill="#30313D"/>
<path d="M67.9174 33.2765L44.2884 46.9501L21.739 33.9162C21.3792 33.7163 20.9394 33.5564 20.5396 33.4364L42.6092 20.5625L43.9286 19.8028C44.1285 19.7229 44.3684 19.7229 44.5283 19.7628L67.9174 33.2765Z" fill="#30313D"/>
<path d="M69.9923 36.9157V126.314C69.9923 127.593 69.3127 128.713 68.2332 129.352L46.1235 142.106C46.2435 141.707 46.3234 141.187 46.3234 140.747V50.5093L69.9524 36.8757L69.9923 36.9157Z" fill="#30313D"/>
<path d="M42.208 50.5089V140.747C42.208 141.106 41.9681 141.346 41.8482 141.386C41.7283 141.466 41.4884 141.546 41.1685 141.386L20.3383 129.352C19.2588 128.712 18.5791 127.553 18.5791 126.313V38.1147C18.5791 37.7948 18.779 37.5549 18.899 37.515C18.9789 37.435 19.0989 37.395 19.2588 37.395C19.3787 37.395 19.4987 37.435 19.6186 37.515L42.168 50.5089H42.208Z" fill="#30313D"/>
<path d="M745.957 42.5115V39.313H761.03V42.5115H755.393V57.6644H751.555V42.5115H745.917H745.957Z" fill="#333336"/>
<path d="M762.985 39.313H767.783L772.821 51.6672H773.021L778.058 39.313H782.856V57.6644H779.098V45.71H778.978L774.22 57.5844H771.661L766.903 45.67H766.784V57.6644H763.025V39.313H762.945H762.985Z" fill="#333336"/>
<path d="M198.894 119.875V115.397C198.894 114.517 198.174 113.798 197.295 113.798H164.51C163.63 113.798 162.911 113.078 162.911 112.199V46.2694C162.911 45.3898 162.191 44.6702 161.312 44.6702H156.154C155.274 44.6702 154.555 45.3898 154.555 46.2694V119.875C154.555 120.755 155.274 121.474 156.154 121.474H197.295C198.174 121.474 198.894 120.755 198.894 119.875Z" fill="#30313D"/>
<path d="M218.245 119.876V40.7931C218.245 39.9135 217.525 39.1938 216.646 39.1938H211.608C210.728 39.1938 210.009 39.9135 210.009 40.7931V119.876C210.009 120.756 210.728 121.475 211.608 121.475H216.646C217.525 121.475 218.245 120.756 218.245 119.876Z" fill="#30313D"/>
<path d="M248.151 122.594C257.466 122.594 264.943 117.437 268.461 109.32V119.916C268.461 120.795 269.181 121.515 270.06 121.515H274.538C275.418 121.515 276.138 120.795 276.138 119.916V85.6116C276.138 74.5368 266.822 67.0603 253.548 67.0603C241.434 67.0603 233.278 73.1375 231.199 83.5726C231.039 84.4521 231.638 85.2918 232.518 85.4517L236.596 86.1314C237.436 86.2913 238.195 85.7315 238.395 84.9319C240.194 78.2151 245.432 73.9771 253.548 73.9771C262.544 73.9771 268.021 78.9347 268.021 84.732C268.021 87.5707 265.622 89.6897 258.586 90.8891L243.113 93.5279C233.997 95.0472 229.399 100.645 229.399 107.481C229.399 116.477 236.876 122.634 248.151 122.634V122.594ZM249.67 116.117C242.873 116.117 237.716 112.719 237.716 107.122C237.716 102.963 240.554 99.765 246.591 98.6855L259.545 96.2866C264.823 95.2871 267.462 93.7678 268.421 92.2085V96.2866C268.421 107.361 259.985 116.157 249.67 116.157V116.117Z" fill="#30313D"/>
<path d="M371.652 121.474C372.531 121.474 373.251 120.754 373.251 119.875V91.2882C373.251 75.4956 366.574 67.0195 353.26 67.0195C345.784 67.0195 339.707 70.0981 335.988 77.9344C335.389 79.2138 333.589 79.1738 333.07 77.8545C330.111 70.6578 324.274 67.0195 315.638 67.0195C307.002 67.0195 300.805 71.2975 297.526 79.9735V69.7383C297.526 68.8587 296.807 68.139 295.927 68.139H291.329C290.45 68.139 289.73 68.8587 289.73 69.7383V119.875C289.73 120.754 290.45 121.474 291.329 121.474H296.367C297.246 121.474 297.966 120.754 297.966 119.875V95.3662C297.966 82.4123 303.683 74.8559 313.319 74.8559C322.954 74.8559 327.352 81.6527 327.352 94.0469V119.875C327.352 120.754 328.072 121.474 328.952 121.474H333.989C334.869 121.474 335.588 120.754 335.588 119.875V95.3662C335.588 82.4123 341.186 74.8559 350.941 74.8559C360.697 74.8559 364.975 81.6527 364.975 94.0469V119.875C364.975 120.754 365.694 121.474 366.574 121.474H371.612H371.652Z" fill="#30313D"/>
<path d="M403.24 122.594C412.556 122.594 420.032 117.437 423.55 109.32V119.916C423.55 120.795 424.27 121.515 425.15 121.515H429.628C430.507 121.515 431.227 120.795 431.227 119.916V85.6116C431.227 74.5368 421.911 67.0603 408.637 67.0603C396.523 67.0603 388.367 73.1375 386.288 83.5726C386.128 84.4521 386.728 85.2918 387.607 85.4517L391.685 86.1314C392.525 86.2913 393.285 85.7315 393.485 84.9319C395.284 78.2151 400.521 73.9771 408.637 73.9771C417.633 73.9771 423.111 78.9347 423.111 84.732C423.111 87.5707 420.712 89.6897 413.675 90.8891L398.202 93.5279C389.087 95.0472 384.489 100.645 384.489 107.481C384.489 116.477 391.965 122.634 403.24 122.634V122.594ZM404.759 116.117C397.962 116.117 392.805 112.719 392.805 107.122C392.805 102.963 395.644 99.765 401.681 98.6855L414.635 96.2866C419.912 95.2871 422.551 93.7678 423.51 92.2085V96.2866C423.51 107.361 415.074 116.157 404.759 116.157V116.117Z" fill="#30313D"/>
<path d="M508.267 119.875V46.2694C508.267 45.3898 507.547 44.6702 506.667 44.6702H495.393C494.513 44.6702 493.793 45.3898 493.793 46.2694V92.9275C493.793 94.5268 491.754 95.1265 490.875 93.8071L458.73 45.3898C458.45 44.95 457.93 44.6702 457.41 44.6702H445.376C444.497 44.6702 443.777 45.3898 443.777 46.2694V119.875C443.777 120.755 444.497 121.474 445.376 121.474H456.651C457.53 121.474 458.25 120.755 458.25 119.875V73.2168C458.25 71.6175 460.289 71.0178 461.169 72.3372L493.314 120.755C493.594 121.194 494.113 121.474 494.633 121.474H506.667C507.547 121.474 508.267 120.755 508.267 119.875V119.875Z" fill="#30313D"/>
<path d="M545.011 122.673C561.923 122.673 573.758 110.839 573.758 94.8062C573.758 78.7737 561.923 66.9392 545.011 66.9392C528.099 66.9392 516.385 78.7737 516.385 94.8062C516.385 110.839 528.139 122.673 545.011 122.673ZM545.011 110.279C536.775 110.279 530.858 103.802 530.858 94.8062C530.858 85.8104 536.775 79.3334 545.011 79.3334C553.247 79.3334 559.285 85.8104 559.285 94.8062C559.285 103.802 553.367 110.279 545.011 110.279Z" fill="#30313D"/>
<path d="M603.942 122.675C611.498 122.675 617.895 119.036 621.054 112.679V119.876C621.054 120.756 621.774 121.475 622.653 121.475H632.728C633.608 121.475 634.328 120.756 634.328 119.876V40.7931C634.328 39.9135 633.608 39.1938 632.728 39.1938H621.774C620.894 39.1938 620.174 39.9135 620.174 40.7931V71.0589C620.174 72.4583 618.495 73.1779 617.496 72.2184C614.097 68.8999 609.299 66.9808 603.942 66.9808C589.229 66.9808 577.914 77.9757 577.914 94.8478C577.914 111.72 589.229 122.715 603.942 122.715V122.675ZM606.341 110.281C598.105 110.281 592.387 103.804 592.387 94.8078C592.387 85.812 598.105 79.335 606.341 79.335C614.577 79.335 620.174 85.812 620.174 94.8078C620.174 103.804 614.457 110.281 606.341 110.281Z" fill="#30313D"/>
<path d="M671.031 122.673C682.465 122.673 691.541 116.796 695.739 108.56C696.219 107.64 695.579 106.481 694.54 106.281L685.184 104.642C684.584 104.522 683.984 104.801 683.625 105.321C681.106 108.8 676.708 111.158 671.031 111.158C663.674 111.158 658.077 106.521 656.877 100.004C656.717 99.0442 657.517 98.2046 658.476 98.2046H697.698C697.818 97.325 697.898 95.6857 697.898 94.6862C697.898 78.7737 686.943 66.9392 670.031 66.9392C653.119 66.9392 642.164 78.7737 642.164 94.8062C642.164 110.839 652.599 122.673 671.031 122.673V122.673ZM670.031 78.2139C676.268 78.2139 681.226 81.8522 682.945 87.2897C683.265 88.3292 682.505 89.4087 681.426 89.4087H658.676C657.597 89.4087 656.797 88.3292 657.157 87.2897C658.876 81.8522 663.834 78.2139 670.071 78.2139H670.031Z" fill="#30313D"/>
<path d="M726.046 122.675C738.56 122.675 749.954 116.198 749.954 106.323C749.954 98.3264 745.437 93.3687 732.523 89.8504L723.527 87.4515C719.369 86.372 717.729 85.1326 717.729 82.8536C717.729 79.7751 721.368 77.5761 726.086 77.5761C730.564 77.5761 734.202 79.8151 735.761 83.7332C736.041 84.4529 736.761 84.9327 737.52 84.8127L747.476 83.1735C748.275 83.0536 748.955 82.2939 748.835 81.4543C747.875 74.3776 739.879 66.9011 726.126 66.9011C712.372 66.9011 703.296 74.1377 703.296 83.2535C703.296 91.6095 708.134 96.0874 719.649 99.2859L728.644 101.805C733.602 103.244 735.561 104.643 735.561 106.962C735.561 109.921 731.483 112 726.126 112C721.888 112 717.45 110.041 715.411 105.723C715.091 105.043 714.411 104.643 713.691 104.763L703.656 106.403C702.817 106.523 702.177 107.282 702.297 108.122C703.336 115.598 712.332 122.675 726.126 122.675H726.046Z" fill="#30313D"/>
</svg>
